<?xml version="1.0" encoding="utf-8"?>
<!-- Generator: Adobe Illustrator 19.1.0, SVG Export Plug-In . SVG Version: 6.00 Build 0)  -->
<svg version="1.1" id="Candidate_1_" xmlns="http://www.w3.org/2000/svg" xmlns:xlink="http://www.w3.org/1999/xlink" x="0px"
	 y="0px" viewBox="232.7 -46.2 378.1 134.7" style="enable-background:new 232.7 -46.2 378.1 134.7;" xml:space="preserve">
<style type="text/css">
	.st0{fill:#26313D;}
	.st1{fill:#F9AC1A;}
	.st2{fill:#407DB8;}
	.st3{fill:url(#SVGID_1_);}
	.st4{clip-path:url(#SVGID_3_);}
	.st5{fill:#162331;}
	.st6{fill:#5592C8;}
	.st7{fill:#88BCE8;}
</style>
<g id="Text_1_">
	<g id="m:_Stroked_in_Illustrator_1.2_center">
		<g>
			<path class="st0" d="M405.6,1.2c-8.1,0-14.7,3.3-20,10c-3.6-6.5-9.9-10-17.9-10c-8.8,0-14,4.6-17.6,9.1V2.5h-14.8v59.6h14.8V29
				c0-8.6,4.8-14.2,12.2-14.2c7.3,0,11.5,5,11.5,13.8V62h14.8V28.9c0-8.7,4.7-14.2,12.2-14.2c7.4,0,11.5,5,11.5,14V62h14.8V24.5
				C427.1,9.9,419,1.2,405.6,1.2z"/>
		</g>
	</g>
	<g id="Lab">
		<g>
			<path class="st1" d="M456.6-18.1h-14.7V62H485V47.5h-28.4V-18.1z M602.6,10.1c-5.4-5.8-12-8.8-19.7-8.8c-3.6,0-6.9,0.7-10,2
				c-3.1,1.3-6,3.4-8.7,6v-26.1h-14.7V62h14.7v-6.3c2.9,2.8,5.8,4.7,8.8,6c2.9,1.2,6.1,1.8,9.5,1.8c7.7,0,14.3-3,19.9-8.9
				c5.6-5.9,8.4-13.3,8.4-22.1C610.7,23.4,608,15.9,602.6,10.1z M591.3,45c-3.1,3.3-6.9,4.9-11.5,4.9c-4.7,0-8.6-1.6-11.6-4.9
				c-3.1-3.2-4.6-7.5-4.6-12.8c0-5.1,1.5-9.3,4.6-12.5c3.1-3.2,7-4.8,11.6-4.8c4.6,0,8.5,1.6,11.5,4.9c3,3.2,4.6,7.4,4.6,12.5
				C595.9,37.5,594.4,41.7,591.3,45z M516.5,1.1c-9.7,0-16.3,2-23,5l3.6,10.9c5.5-2.3,10.7-3.6,17.5-3.6c9.8,0,15.1,4.1,15.1,12.8
				v0.5c-4.7-1.5-9.6-2.4-16.4-2.4c-14.9,0-25.3,6.5-25.3,19.6v0.7c0,12.2,10.3,19,21.7,19c9.3,0,15.7-2.8,19.8-7.8v6.3h14.7V26.7
				c0-9.5-2.7-14.4-7.2-18.8C532.9,3.6,525.6,1.1,516.5,1.1z M530,39c0,6.4-6.8,13.7-15.8,13.7c-6.5,0-11.3-3.2-11.3-9v-0.2
				c0-6.2,4.9-9.9,13.6-9.9c5.4,0,10,1,13.4,2.4L530,39L530,39z"/>
		</g>
	</g>
</g>
<g>
	<g>
		<path class="st2" d="M283.5,85.2v-3.8h6.5v3.8c0,1.8-1.5,3.3-3.3,3.3C284.9,88.5,283.5,87,283.5,85.2z"/>
		<path class="st2" d="M265.3,85.2v-3.8h6.6v3.8c0,1.8-1.5,3.3-3.3,3.3C266.8,88.5,265.3,87,265.3,85.2z"/>
		<path class="st2" d="M247.1,85.2v-3.8h6.6v3.8c0,1.8-1.5,3.3-3.3,3.3S247.1,87,247.1,85.2z"/>
	</g>
	<path class="st2" d="M296.3,77.3l-3,5h-49.7l-2.8-5H296.3z"/>
	
		<linearGradient id="SVGID_1_" gradientUnits="userSpaceOnUse" x1="235.4" y1="47.1067" x2="301.6836" y2="47.1067" gradientTransform="matrix(1 0 0 -1 0 47.4)">
		<stop  offset="0" style="stop-color:#F9AC1A"/>
		<stop  offset="1" style="stop-color:#F9C51A"/>
	</linearGradient>
	<path class="st3" d="M235.4,46.8v-57.9l0,0c0.1-15.9,12.9-29,29.4-30.7c0.9-0.2,1.5-0.8,1.7-1.2c0.5-0.9,1-1.9,1.3-2.8
		c0.2-0.5,1.1-0.6,1.4,0c0.3,0.8,0.9,1.9,1.3,2.8c0.2,0.4,0.8,1,1.7,1.2c16.5,1.7,29.3,14.8,29.4,30.7l0,0v57.9H235.4z"/>
	<g>
		<g>
			<defs>
				<path id="SVGID_2_" d="M235.4,46.8v-57.9l0,0c0.1-15.9,12.9-29,29.4-30.7c0.9-0.2,1.5-0.8,1.7-1.2c0.5-0.9,1-1.9,1.3-2.8
					c0.2-0.5,1.1-0.6,1.4,0c0.3,0.8,0.9,1.9,1.3,2.8c0.2,0.4,0.8,1,1.7,1.2c16.5,1.7,29.3,14.8,29.4,30.7l0,0v57.9H235.4z"/>
			</defs>
			<clipPath id="SVGID_3_">
				<use xlink:href="#SVGID_2_"  style="overflow:visible;"/>
			</clipPath>
			<g class="st4">
				<path class="st5" d="M288.8,25.7c-4,0-5.2,1.6-5.2,4.5c0,5,6.1,10.8,6.1,19.9c0,6.6-3.9,12.2-12.5,12.2h-4v-8.1h1.8
					c3.1,0,4.2-1.8,4.2-4.8c0-6.7-3.7-12.8-3.7-17.9s1.7-7.5,7.8-8.8c-6.1-1.3-7.8-5.3-7.8-10.4c0-5,3.7-9.1,3.7-15.9
					c0-3-1.5-5.3-5.2-5.3c-1.4,0-2.5,0-3.5,0v-6.2c9.2-4.7,16.9,3.7,16.9,9.9c0,9-3.8,16-3.8,20.9c0,2.8,1.2,4.1,5.2,4.1h2.7v6
					L288.8,25.7L288.8,25.7z M266.7-9c-0.9,0-2,0-3.2,0c-3.7,0-5.2,2.4-5.2,5.3c0,6.8,3.7,10.9,3.7,15.9c0,5.1-2,9.1-8.2,10.4
					c6.1,1.3,8.2,3.7,8.2,8.8c0,5-3.7,11.2-3.7,17.9c0,3,1.1,4.8,4.2,4.8h1.8v8.1h-4c-8.6,0-12.5-5.5-12.5-12.2
					c0-9.1,6.1-15,6.1-19.9c0-2.9-1-4.5-5-4.5h-3.3v-6h3.3c4,0,5-1.3,5-4.1c0-5-3.8-11.9-3.8-20.9c0-6.2,7.5-14.5,16.6-10
					C266.7-15.4,266.7-9,266.7-9z"/>
			</g>
		</g>
	</g>
	<path class="st6" d="M300.8,50.6c-0.4,1-0.5,2.2-0.6,3.2c0,0,0,0,0,0.1v20.8c0,1.8-1.5,3.3-3.3,3.3h-56.8c-1.8,0-3.3-1.5-3.3-3.3
		V53.9c0,0,0,0,0-0.1c-0.1-1-0.2-2.2-0.6-3.2c-0.8-2.3-3.5-3.3-3.5-3.3l0.2-1.3h71.2l0.2,1.3C304.3,47.3,301.6,48.2,300.8,50.6z"/>
	<path class="st7" d="M300.3,62.2h-22.2c-1.4,0-2.5-1.1-2.5-2.5s1.1-2.5,2.5-2.5h22.1v5H300.3z"/>
	<path class="st7" d="M236.9,57.2H259c1.4,0,2.5,1.1,2.5,2.5s-1.1,2.5-2.5,2.5h-22.1V57.2z"/>
</g>
</svg>
